<?xml version="1.0" encoding="utf-8"?>
<!-- Generator: Adobe Illustrator 24.1.0, SVG Export Plug-In . SVG Version: 6.00 Build 0)  -->
<svg version="1.1" id="Layer_1" xmlns="http://www.w3.org/2000/svg" xmlns:xlink="http://www.w3.org/1999/xlink" x="0px" y="0px"
	 viewBox="0 0 135 135" style="enable-background:new 0 0 135 135;" xml:space="preserve">
<style type="text/css">
	.st0{fill:#FFFFFF;}
	.st1{fill:#CED9DD;}
	.st2{fill:#33363A;}
	.st3{fill:#FF8F8F;}
	.st4{fill:#FF1A1A;}
	.st5{fill:#D8E5EA;}
	.st6{fill:#A7BBC1;}
</style>
<g>
	<g>
		<g>
			<g>
				<path class="st0" d="M22.6,47.4c0,32.9,17.4,63.7,44.9,84.3c27.5-20.6,44.9-51.4,44.9-84.3c0-8.2-1.1-13.8-3.1-17.8
					c-5-15.1-21.7-26.2-41.7-26.2c-20,0-36.7,11.1-41.7,26.2C23.7,33.6,22.6,39.2,22.6,47.4z"/>
			</g>
			<g>
				<path class="st1" d="M67.5,3.4c-20,0-36.7,11.1-41.7,26.2c-2.1,4.1-3.1,9.6-3.1,17.8c0,32.9,17.4,63.7,44.9,84.3"/>
			</g>
			<g>
				<path class="st2" d="M67.5,133.3c-0.4,0-0.8-0.1-1.1-0.4c-28.9-21.7-45.5-52.9-45.5-85.6c0-8.2,1-14,3.3-18.5
					c5.4-16,23.2-27.2,43.4-27.2c20.2,0,38,11.2,43.4,27.2c2.2,4.4,3.3,10.3,3.3,18.5c0,32.8-16.6,64-45.6,85.6
					C68.3,133.2,67.9,133.3,67.5,133.3z M67.5,5.1c-18.7,0-35.2,10.3-40,25c0,0.1-0.1,0.2-0.1,0.2c-2,4-3,9.4-3,17.1
					c0,31.3,15.7,61.1,43.1,82.1c27.4-21,43.1-50.8,43.1-82.1c0-7.7-0.9-13.1-3-17.1c0-0.1-0.1-0.2-0.1-0.2
					C102.7,15.3,86.2,5.1,67.5,5.1z"/>
			</g>
		</g>
	</g>
	<g>
		<g>
			<ellipse class="st3" cx="67.5" cy="37.5" rx="26.9" ry="25.9"/>
		</g>
		<g>
			<path class="st4" d="M94.4,37.5c0,11-12.1,19.9-26.9,19.9s-27-8.9-27-19.9c0-11,12.1-19.9,27-19.9S94.4,26.5,94.4,37.5z"/>
		</g>
		<g>
			<path class="st0" d="M40.6,37.5c0,14.3,12.1,25.9,27,25.9s26.9-11.6,26.9-25.9H40.6z"/>
		</g>
		<g>
			<path class="st5" d="M67.5,57.4c14.9,0,26.9-8.9,26.9-19.9H40.6C40.6,48.5,52.6,57.4,67.5,57.4z"/>
		</g>
		<g>
			<path class="st2" d="M67.5,65.1c-15.8,0-28.7-12.4-28.7-27.6c0-15.2,12.9-27.6,28.7-27.6c15.8,0,28.7,12.4,28.7,27.6
				C96.2,52.7,83.3,65.1,67.5,65.1z M67.5,13.3c-13.9,0-25.2,10.9-25.2,24.2c0,13.4,11.3,24.2,25.2,24.2c13.9,0,25.2-10.9,25.2-24.2
				C92.7,24.1,81.4,13.3,67.5,13.3z"/>
		</g>
		<g>
			<path class="st2" d="M94.4,39.2H40.6c-1,0-1.8-0.8-1.8-1.7s0.8-1.7,1.8-1.7h53.9c1,0,1.8,0.8,1.8,1.7S95.4,39.2,94.4,39.2z"/>
		</g>
		<g>
			<g>
				<ellipse class="st6" cx="67.5" cy="40.5" rx="8.9" ry="8.6"/>
			</g>
			<g>
				<ellipse class="st0" cx="67.5" cy="37.6" rx="8.9" ry="8.6"/>
			</g>
			<g>
				<path class="st5" d="M61.2,43.6c-3.5-3.3-3.5-8.8,0-12.1c3.5-3.3,9.1-3.3,12.6,0"/>
			</g>
			<g>
				<path class="st2" d="M67.5,47.8c-2.9,0-5.5-1.1-7.6-3c-4.2-4-4.2-10.5,0-14.5c2-1.9,4.7-3,7.6-3s5.5,1.1,7.6,3
					c2,1.9,3.1,4.5,3.1,7.3c0,2.7-1.1,5.3-3.1,7.3C73,46.8,70.4,47.8,67.5,47.8z M67.5,30.7c-1.9,0-3.7,0.7-5,2
					c-2.8,2.7-2.8,7,0,9.7c1.3,1.3,3.1,2,5,2c1.9,0,3.7-0.7,5-2c1.3-1.3,2.1-3,2.1-4.9c0-1.8-0.7-3.6-2.1-4.9
					C71.2,31.4,69.4,30.7,67.5,30.7z"/>
			</g>
		</g>
	</g>
	<g>
		<path class="st2" d="M67.5,87.4c-1,0-1.8-0.8-1.8-1.7V65.1c0-0.9,0.8-1.7,1.8-1.7s1.8,0.8,1.8,1.7v20.5
			C69.3,86.6,68.5,87.4,67.5,87.4z"/>
	</g>
	<g>
		<path class="st2" d="M67.5,94.4c-1,0-1.8-0.8-1.8-1.7v-0.3c0-0.9,0.8-1.7,1.8-1.7s1.8,0.8,1.8,1.7v0.3
			C69.3,93.6,68.5,94.4,67.5,94.4z"/>
	</g>
	<g>
		<path class="st2" d="M67.5,101.4c-1,0-1.8-0.8-1.8-1.7v-0.3c0-0.9,0.8-1.7,1.8-1.7s1.8,0.8,1.8,1.7v0.3
			C69.3,100.6,68.5,101.4,67.5,101.4z"/>
	</g>
	<g>
		<path class="st2" d="M67.5,108.3c-1,0-1.8-0.8-1.8-1.7v-0.3c0-0.9,0.8-1.7,1.8-1.7s1.8,0.8,1.8,1.7v0.3
			C69.3,107.6,68.5,108.3,67.5,108.3z"/>
	</g>
	<g>
		<path class="st2" d="M67.5,115.3c-1,0-1.8-0.8-1.8-1.7v-0.3c0-0.9,0.8-1.7,1.8-1.7s1.8,0.8,1.8,1.7v0.3
			C69.3,114.6,68.5,115.3,67.5,115.3z"/>
	</g>
</g>
</svg>
